<mxfile host="app.diagrams.net" modified="2023-12-29T12:33:12.914Z" agent="Mozilla/5.0 (Windows NT 10.0; Win64; x64) AppleWebKit/537.36 (KHTML, like Gecko) Chrome/99.0.4844.88 Safari/537.36" etag="JSq-gMeo6OtRtRo9nsBr" version="22.1.15" type="github">
  <diagram name="Page-1" id="HuNF7yT02kHtATcLPut9">
    <mxGraphModel dx="3433" dy="2196" grid="1" gridSize="10" guides="1" tooltips="1" connect="1" arrows="1" fold="1" page="1" pageScale="1" pageWidth="1169" pageHeight="827" math="0" shadow="0">
      <root>
        <mxCell id="0" />
        <mxCell id="1" parent="0" />
        <mxCell id="Nrl9sCia2AyJpoVkbcR8-31" value="" style="shape=cube;whiteSpace=wrap;html=1;boundedLbl=1;backgroundOutline=1;darkOpacity=0.05;darkOpacity2=0.1;rotation=25;size=33;strokeColor=default;" parent="1" vertex="1">
          <mxGeometry x="-2190" y="-1152.58" width="702.48" height="40.04" as="geometry" />
        </mxCell>
        <mxCell id="Nrl9sCia2AyJpoVkbcR8-32" value="" style="shape=cube;whiteSpace=wrap;html=1;boundedLbl=1;backgroundOutline=1;darkOpacity=0.05;darkOpacity2=0.1;rotation=25;strokeColor=default;size=12;" parent="1" vertex="1">
          <mxGeometry x="-2123.97" y="-1280.57" width="95.96" height="41.93" as="geometry" />
        </mxCell>
        <mxCell id="Nrl9sCia2AyJpoVkbcR8-40" value="" style="endArrow=classic;html=1;rounded=0;" parent="1" edge="1">
          <mxGeometry width="50" height="50" relative="1" as="geometry">
            <mxPoint x="-2050.35" y="-1191" as="sourcePoint" />
            <mxPoint x="-2146.12" y="-1236" as="targetPoint" />
          </mxGeometry>
        </mxCell>
        <mxCell id="Nrl9sCia2AyJpoVkbcR8-41" value="" style="endArrow=classic;html=1;rounded=0;" parent="1" edge="1">
          <mxGeometry width="50" height="50" relative="1" as="geometry">
            <mxPoint x="-2106.12" y="-1310" as="sourcePoint" />
            <mxPoint x="-2015.89" y="-1270" as="targetPoint" />
          </mxGeometry>
        </mxCell>
        <mxCell id="Nrl9sCia2AyJpoVkbcR8-43" value="" style="endArrow=none;html=1;rounded=0;entryX=1;entryY=1;entryDx=0;entryDy=0;entryPerimeter=0;" parent="1" target="Nrl9sCia2AyJpoVkbcR8-31" edge="1">
          <mxGeometry width="50" height="50" relative="1" as="geometry">
            <mxPoint x="-2146.12" y="-970" as="sourcePoint" />
            <mxPoint x="-1964.73" y="-1004" as="targetPoint" />
          </mxGeometry>
        </mxCell>
        <mxCell id="Nrl9sCia2AyJpoVkbcR8-44" value="" style="verticalLabelPosition=bottom;verticalAlign=top;html=1;shape=mxgraph.basic.arc;startAngle=0.7076246702692839;endAngle=0.897890866193633;" parent="1" vertex="1">
          <mxGeometry x="-1664.73" y="-1030" width="100" height="100" as="geometry" />
        </mxCell>
        <mxCell id="Nrl9sCia2AyJpoVkbcR8-35" value="" style="shape=cylinder3;whiteSpace=wrap;html=1;boundedLbl=1;backgroundOutline=1;size=8.909952622966557;fillColor=#f8cecc;strokeColor=default;rotation=-185;gradientColor=none;" parent="1" vertex="1">
          <mxGeometry x="-1715.5099999999998" y="-1117" width="14.45" height="22.54" as="geometry" />
        </mxCell>
        <mxCell id="Nrl9sCia2AyJpoVkbcR8-38" value="" style="shape=cylinder3;whiteSpace=wrap;html=1;boundedLbl=1;backgroundOutline=1;size=8.909952622966557;fillColor=#dae8fc;strokeColor=#6c8ebf;rotation=-185;" parent="1" vertex="1">
          <mxGeometry x="-1715.5099999999998" y="-1069.62" width="14.74" height="24.84" as="geometry" />
        </mxCell>
        <mxCell id="Nrl9sCia2AyJpoVkbcR8-47" value="" style="shape=cylinder3;whiteSpace=wrap;html=1;boundedLbl=1;backgroundOutline=1;size=8.909952622966557;fillColor=#f8cecc;strokeColor=default;rotation=-185;gradientColor=none;" parent="1" vertex="1">
          <mxGeometry x="-1841.12" y="-1175" width="14.45" height="22.54" as="geometry" />
        </mxCell>
        <mxCell id="Nrl9sCia2AyJpoVkbcR8-48" value="" style="shape=cylinder3;whiteSpace=wrap;html=1;boundedLbl=1;backgroundOutline=1;size=8.909952622966557;fillColor=#dae8fc;strokeColor=#6c8ebf;rotation=-185;" parent="1" vertex="1">
          <mxGeometry x="-1841.12" y="-1127.62" width="14.74" height="24.84" as="geometry" />
        </mxCell>
        <mxCell id="Nrl9sCia2AyJpoVkbcR8-49" value="" style="shape=cylinder3;whiteSpace=wrap;html=1;boundedLbl=1;backgroundOutline=1;size=8.909952622966557;fillColor=#f8cecc;strokeColor=default;rotation=-185;gradientColor=none;" parent="1" vertex="1">
          <mxGeometry x="-1972.12" y="-1236" width="14.45" height="22.54" as="geometry" />
        </mxCell>
        <mxCell id="Nrl9sCia2AyJpoVkbcR8-50" value="" style="shape=cylinder3;whiteSpace=wrap;html=1;boundedLbl=1;backgroundOutline=1;size=8.909952622966557;fillColor=#dae8fc;strokeColor=#6c8ebf;rotation=-185;" parent="1" vertex="1">
          <mxGeometry x="-1972.12" y="-1188.62" width="14.74" height="24.84" as="geometry" />
        </mxCell>
        <mxCell id="Nrl9sCia2AyJpoVkbcR8-51" value="C" style="text;html=1;strokeColor=none;fillColor=none;align=center;verticalAlign=middle;whiteSpace=wrap;rounded=0;fontStyle=1;fontColor=#FF3333;" parent="1" vertex="1">
          <mxGeometry x="-1701.06" y="-1123.81" width="18.61" height="17.22" as="geometry" />
        </mxCell>
        <mxCell id="Nrl9sCia2AyJpoVkbcR8-52" value="D" style="text;html=1;strokeColor=none;fillColor=none;align=center;verticalAlign=middle;whiteSpace=wrap;rounded=0;fontStyle=1;fontColor=#FF3333;" parent="1" vertex="1">
          <mxGeometry x="-1700.77" y="-1080" width="18.61" height="17.22" as="geometry" />
        </mxCell>
        <mxCell id="Nrl9sCia2AyJpoVkbcR8-53" value="B" style="text;html=1;strokeColor=none;fillColor=none;align=center;verticalAlign=middle;whiteSpace=wrap;rounded=0;fontStyle=1;fontColor=#FF3333;" parent="1" vertex="1">
          <mxGeometry x="-1906.12" y="-1172.34" width="18.61" height="17.22" as="geometry" />
        </mxCell>
        <mxCell id="Nrl9sCia2AyJpoVkbcR8-54" value="A" style="text;html=1;strokeColor=none;fillColor=none;align=center;verticalAlign=middle;whiteSpace=wrap;rounded=0;fontStyle=1;fontColor=#FF3333;" parent="1" vertex="1">
          <mxGeometry x="-2083.12" y="-1260" width="18.61" height="17.22" as="geometry" />
        </mxCell>
        <mxCell id="Nrl9sCia2AyJpoVkbcR8-55" value="" style="shape=image;verticalLabelPosition=bottom;labelBackgroundColor=default;verticalAlign=top;aspect=fixed;imageAspect=0;image=data:image/png,iVBORw0KGgoAAAANSUhEUgAAAHkAAAAWCAYAAADkWDPGAAAAAXNSR0IArs4c6QAAA+xJREFUaEPtmYFxUzEMht1N6CTAJMAkwCTAJMAkwCRwXy5fT1Ut2y9Nk7Tk3XFJX2xZ0i/9ksxNuz4v3gM3Cxa+aa29a63x+bW19nlhz3XJ+TzwZY/Vj9baTzBbAflva+3TfiNA37bWfp/PhuvJAw983//2YY8XgN/OQP64B5h1v/YCAPn6XJ4HzOCIzy5BZyBfgb08MHsavdonIYwbyykgD+najXD72+dh63+rJTQNXjGL7/AbZTL1l805Op6TJzH0FP0D5/DPh8SoMs511Rr2sQb/ozvr+F6tr3C6e98DGW5/Xyg5o/dLCoBedKMffQb2Hau3sG/JgND8+AAafuWTCUUQ87QSaZe9AOVUE+VFP2Mna2DbGAjqNazJLsqbHwskDn59gBCcuGV829Wj1lp2TvX+AJV2TJcdjHyeOIXwLpc9AUU/9OShB8rAcwa2VyB7njK0A7044+0oMzWgt4YAMMq2ZnemtlXnYugq9RJIZE50IOf4vleCtCnXtko/ZeVAQg4yBEU/9kbPzDa9AMTPJEUvwA2UXgJgP8/NCCAOZHNFa8emvVWwV9ZZcrJjfV+xk46psiaerawcSFk/M21UGtXHgJD6d5cZA4OroI3gl3Ny1ZLH83LErjj/VGugPWzIjq3eq5cXPytlQVmjcmbzUyWLgSKzoLPJo05Sda/xqkrqXT2GAapMvreoQGaLQ6KIQ+kaGaOONNYiMmJrPTawV3uQquHJtnrXMMrkzAY2Zl4nz4Ik63yPhWcgVwbrEKlcZb5N6AUHyABbs3pGXcqrKCzXULKIjLXOx/Ljfb1deK8XyFmYweVv9o16G9nAssLfuTxWpQf5vd8eJGgF8kgxgcIBBAFCcRYKXsJMXTlfm8wa/o6XPDZe2OIsu7v7LRq+WPeQEwMB2ciBeWZ10667YhKnkV6fYDmIyfigk69AXmm6HNY9fDSwb83ax6w3O6xlfAIWnzgMfWEeQYj12C7VZmd2mYLNNmvKk6lyAHE2cmEks5DzXBeDhnWwovM1sqsGzLGL9epy74ayB/JK02Wrb8TjuNXx5jEAzvYa2WQHRjN6oBff+RSAPHJEmwVjpflCH+unZ/GuGncch/RVXIccgg9dLRf+d+Hsdox97O+WtGoGhnZX6jHKAjggowgHrTRHM7AO/b2aj2fycj2GbvGNbHUJATyzofxdkGOxZvHo2i/Px9AFIFcD+8HKHbBx1KSMxMVxUAqmFue6fYBK598iyHGw5/tojMAhf0KN0EGr3e9TWj2bg6uzATNOBl4l8u6czHQUXwkyNBsNG92yHOXgJxJyzHvpJ1Lx9GK33jufXsNtJ8664W3SXsjqf/IaOmHgHwv7AAAAAElFTkSuQmCC;" parent="1" vertex="1">
          <mxGeometry x="-2190" y="-1197" width="121" height="22" as="geometry" />
        </mxCell>
        <mxCell id="Nrl9sCia2AyJpoVkbcR8-56" value="" style="shape=image;verticalLabelPosition=bottom;labelBackgroundColor=default;verticalAlign=top;aspect=fixed;imageAspect=0;image=data:image/png,iVBORw0KGgoAAAANSUhEUgAAAEQAAAAWCAYAAAB5VTpOAAAAAXNSR0IArs4c6QAAAtJJREFUWEftmO1t20AMQOlJmkySdpKmkySZJOkkTSZJO0mLZ+gJNEPp7Nj+U+gAw/LxPsjHjzt5F1s7ILCbft1HxJeGzc+I+B0RIzlTH5r5T2fwvpn2PmOJ4VR0xrbXiHiLiJcM5G4SsgoD+GQgWQ6klyQXCItrCPLPAnmedHk8Y40RjV/TgB8R8TUi2PNWIE7+Oz18m4DkRTH0fUWOCCDfI4L55zT2Yb9rATEybpOS2P54ChDmqmgHTHne5LNQgIHXiLJLNx1bYQNkThk3XTMYqixCI8yqssj/XMmIS0IhVYCSHSek1xohDMYz1WAmkGM05JWu8lNShfSiFvGx7vBso48Ptaymbu7nmZbnLgFEd2zs9CcYPkSIQOoE+imQREEHBFgU4Kp8pxggWIcIMzX4Ng3VgbmMwTm02s9+7Mue6AQQxq6BcY2a8kb/hxrSVXc2o1CymfKsKHIWPCY6DM2qEN5hfYGqYN4HKMAUggCM2s7z1SEeGjXdsWHvlJoyncFsJPlO0Swf5boGdR7yiM8GViD5pOsOBCAtFXXnMqZeBywHu7qoBuMplPZC5gKdnPuJYT0CglIWNe86XIisJbl+7HO6WRsvd4Yv9bvmqH7s1xwBQalMPIcswKp8BETv4xGLIX3AyfmvNy8JZK4TJUIO+isQDfYmWo/RkfwYINlj1CbzN59sIyBGcN5vFCGWg5quB/MqEMPKEK6FciQfAakp6HgijT3dbwnIfF9oivgIiM4k4j2J7JtP1SUgKNrdRgWyJD8GiCdSPh6tF9aqawBR92xXdURUIGuhirFrHhrBqMcmxgPFF6v8omkq5ZdIxuUXTLxKQaYxHm/T6F+6MQveO4yOnXXvgHAKQLG74HhK5DvDMSAc4+2U3xjnDTUfuf6NgFH+JQE80y33A4Q1GFf7u0siY4HH9/51vypfgZxi3H85dgNS3LoB2YCsZ/oWIYXPPybXBYEJDMHRAAAAAElFTkSuQmCC;" parent="1" vertex="1">
          <mxGeometry x="-2064.5099999999998" y="-1320" width="68" height="22" as="geometry" />
        </mxCell>
        <mxCell id="Nrl9sCia2AyJpoVkbcR8-57" style="edgeStyle=orthogonalEdgeStyle;rounded=0;orthogonalLoop=1;jettySize=auto;html=1;exitX=0.5;exitY=1;exitDx=0;exitDy=0;" parent="1" source="Nrl9sCia2AyJpoVkbcR8-55" target="Nrl9sCia2AyJpoVkbcR8-55" edge="1">
          <mxGeometry relative="1" as="geometry" />
        </mxCell>
        <mxCell id="Nrl9sCia2AyJpoVkbcR8-58" value="" style="shape=image;verticalLabelPosition=bottom;labelBackgroundColor=default;verticalAlign=top;aspect=fixed;imageAspect=0;image=data:image/png,iVBORw0KGgoAAAANSUhEUgAAAAoAAAAWCAYAAAD5Jg1dAAAAAXNSR0IArs4c6QAAAMRJREFUOE/VksERwjAMBDedQCWQTqASoBLoBKiEdAKzHsujGMLwRZ8k8uZ0kjXwYwwL3A44ABNwA06fwDOw8rA+/V73oCpHD6qaBR/ApQdLsqqFK3NTBj+pCT/1mUETmrdshF5VbGCo6c8mIrbAVd+hGKCjUDUrCo8B+peJfTdXBSw/BPjNX/EtGIYdS1ac+RZshrtGwk6pmhVzx1Gl5cJjmVUqrZpwm2kejxsz1q0R8r1FvhnBDXCv9z2b1NI+vq3pP4Av6DwyskNl2EEAAAAASUVORK5CYII=;" parent="1" vertex="1">
          <mxGeometry x="-1636.12" y="-1000" width="10" height="22" as="geometry" />
        </mxCell>
        <mxCell id="Nrl9sCia2AyJpoVkbcR8-61" value="" style="endArrow=classic;startArrow=classic;html=1;rounded=0;entryX=1.015;entryY=0.744;entryDx=0;entryDy=0;entryPerimeter=0;exitX=0;exitY=0;exitDx=0;exitDy=8.909952622966557;exitPerimeter=0;" parent="1" source="Nrl9sCia2AyJpoVkbcR8-49" target="Nrl9sCia2AyJpoVkbcR8-47" edge="1">
          <mxGeometry width="50" height="50" relative="1" as="geometry">
            <mxPoint x="-1957.3799999999999" y="-1230" as="sourcePoint" />
            <mxPoint x="-1907.3799999999999" y="-1280" as="targetPoint" />
          </mxGeometry>
        </mxCell>
        <mxCell id="Nrl9sCia2AyJpoVkbcR8-62" value="" style="shape=image;verticalLabelPosition=bottom;labelBackgroundColor=default;verticalAlign=top;aspect=fixed;imageAspect=0;image=data:image/png,iVBORw0KGgoAAAANSUhEUgAAAB8AAAAWCAYAAAA4oUfxAAAAAXNSR0IArs4c6QAAAWdJREFUSEvtlf1NAzEMxV8ngU4CTAKdBJgEmIQyCd2k6Bf5nULI1Tm4in9qqarOsfP8/JWNcrmWxG+fmy6z2AyYvwf4bu0AMvBbSYAjr5IIYDXJwA1MEAdJd/G/SgCnwM16K+nzHOxPgcP6LdL9IOllbfZz4Gbtc7p9KfvelKCjfEXmwGvWtl3C/lES9gABSK+QOUvJaA+8ZW2HUfYuz3M4QoQ72RPo+CaobQ+cQxu2Xc3FZkQjtkKA2MDUQrnQg+XslbFtwc1urhwZe86Rqa6Sjs2OmOregrQp681zxr72MVOWE2y/SQ2ese7V/inq2AsSnQOlRHU2fnT7CGuDzLGHwH3sB8DqetdTw9m+Zk5tYDIigJBSpE6pg0IHgJvXDYgfutKsBrfTCHBrU8YmlNzDWHmuOeObYG4i4Ol1NDgsrn6DHD4sDS8U0g5DdIwsdwPM+Uf9LGev2h/iyV0v4HmOzmDxr2n/Ai5oYBey45qNAAAAAElFTkSuQmCC;" parent="1" vertex="1">
          <mxGeometry x="-1906.12" y="-1219" width="31" height="22" as="geometry" />
        </mxCell>
        <mxCell id="Nrl9sCia2AyJpoVkbcR8-64" value="" style="shape=image;verticalLabelPosition=bottom;labelBackgroundColor=default;verticalAlign=top;aspect=fixed;imageAspect=0;image=data:image/png,iVBORw0KGgoAAAANSUhEUgAAADEAAAAWCAYAAABpNXSSAAAAAXNSR0IArs4c6QAAAjJJREFUWEfNl9FRAzEMRJVOoBOoBKgEqAQ6gU6gE5iXufXIOlmXOEcG/2QmtuRdaSXrDpavGzN7M7MnM/senLnm3+B5NrPXDM9hgORjMfi8IlKAVgGDBGdWRDISHL4zs/uEgDLELwQ5R7YuIYsPARSJkQJQB2cg0lYkAbgvM7tNosJlZOh9AY4TLn9cCM/ITj4BjV/uf1h8giEune/wRRIClTkgCgCONhDj8sxmS40EDPI+6wok2c3UgA2EWzY8IBm/xHQtSH4W2UTHEMeG/8+RlaKa3VcFhkAS0Ibdk9BmJiXteSkpyiIxIj/KRmUHCdVlDMxKUp6EnGbFfgqJjGAlJ8kzI6891Ur0g6SQE3d2+q5SKIJVJmZJZEArguDenUSVpSoTkswsCWSGbZeJrFNE3e+ZiVNIjOSELevYZLz+KxL/rSY66XsS6JA2m/VmdYSsd6teRlG7pDtlnVI10d6XSCJ7zDCqHiAV4ejCEYnqXUIV7I9mu0412TtRDYU4jrMSjyBR8S921c08qawjZuNNDAR3ttbsAadzibOGAJciKT35fnbyj5Kyg3mVoZgNP2COxhjZtAkhRr3rv4kONKBBWKPzaOJEmgxzEK7GEX0r4JPVzUUJhtWjHElUxb01zGX7ZC5rFDO+ZFMOgL6Azy3SDJTkNzPdbjWDchTHmHSxug+PidD9xddhrMkjrKqFtQFrggBZQOPHAW2npRpbyXNEgnvRHgYzX2w74W5u1LXS+voFWxvAF1XvPmEAAAAASUVORK5CYII=;" parent="1" vertex="1">
          <mxGeometry x="-1991.12" y="-1155.12" width="49" height="22" as="geometry" />
        </mxCell>
        <mxCell id="Nrl9sCia2AyJpoVkbcR8-65" value="" style="shape=image;verticalLabelPosition=bottom;labelBackgroundColor=default;verticalAlign=top;aspect=fixed;imageAspect=0;image=data:image/png,iVBORw0KGgoAAAANSUhEUgAAAEMAAAAWCAYAAACbiSE3AAAAAXNSR0IArs4c6QAAApVJREFUWEfVmItNxDAMhn2bwCTAJMAkwCTAJMAksAnoq/pXbmrnQTmkRkLANRfbn5/pyeJ1YWbPZnZvZl/JniN+fG1mt2b2FNl1Six6M7NXM3s5osUNnR/m59i3cnQEg80QvKkcynMOOmrU4Oz3OUIWM0sYpMenmV1WDAXW45xCR40cnAmQlZ0lDAy9mzdlgSEYRA50j7pwOs6kfkzLw1BU4PVlQ2Dp9xw1UD3yklMXBh6GQqfmcQGDKJ3mvxZyfX1C171RuUkVD2NDyllKSKFQuVDwXBGi9o5M/sYBH3PLV/EOW+SAh4jyxfkeBgUFoTXjmD1UU87dSXAA0UcEyIvI5DM/B+0p4sgA6HTGKIzeegGwPUpqFlDtUnoCBk/KKYCJ5CCfvS2HAYN9U8p7GDzgy9l80aoXmu74zd5soOuJ4rImKIV9cS/rCP9rRlKEt2CQDazJ5hEYkUKlYSiBIXhuD4zy3N52jnx+NjNE4oFVafAKYwCGZDWjVyFC9K9h9KYnNocDVQJjlQ0eRsuIUiGFZdliW+eoO9RCGIOu5vsR+5XbPoXxanSRHIGBTcuYEMGIRvGygElBVXsPvgWjVfw4CyVZ6MItk1rh64VgRcPhKIzl3Gjoyu4lCilueyiY3WpbMDSz1AY3tTyAqLOorWIsn2Xp3AtDDg7nDHl7Na87lyst+AgQ2QQoGBlUebV2B1JnQpYGKwBo8KtNv70wquM4gglhBNau763W2IKhmoGsPXIyPXphVC9qUpLChJKtHp0p0wOjHKpagEee98AIX1VkL3fYPHoRU2j7O4zy3Bvj54ARI1t7lcYt+ZzT9XJHAjch1NJk4DmRA6S9t84Bkaut6Zu82pQIkD3p8ltlz/k9XfDCWvUDI8nHF4jofLgAAAAASUVORK5CYII=;" parent="1" vertex="1">
          <mxGeometry x="-1872.26" y="-1094.46" width="67" height="22" as="geometry" />
        </mxCell>
        <mxCell id="Nrl9sCia2AyJpoVkbcR8-66" value="" style="shape=image;verticalLabelPosition=bottom;labelBackgroundColor=default;verticalAlign=top;aspect=fixed;imageAspect=0;image=data:image/png,iVBORw0KGgoAAAANSUhEUgAAAEMAAAAWCAYAAACbiSE3AAAAAXNSR0IArs4c6QAAAr1JREFUWEfVmNFRxDAMRHWdQCVAJUAlQCVAJUAl0AnMy2Qzik/SOclxM/EXJD5LWq1Wcg4WryszezWzRzP7Sfbs8fGtmd2b2UsU1yGJ6MPM3s3sbY8Rn/D5aXxPfLNER2CwGQTvikN5z0F7ZQ3J/hwZMoXZgkF5fJvZdREoYD2PJbRX5pBMAJnF2YJBoA/jpowYAgPmgO5eF0knmejHsDwYYgVZnzYEkf6OrAHVPS8ldcLAgyHqVBkXYCBKp7nUwq7XJ3zdysqjUvFgHCHlIoVSONQuHPwvhqi9Y5O/ScDX2PIl3mGLXJAhWD4l34OBoGC0Co7ZQ5ry352EBMA+GKAsYpNnfg7aIuLYANDhjKVg9OgFYLEIYi1gmgWkXSpPziSTSgrAtGAssQ8YnDmUvAeDFzifzRen9ELZIgCmPLI5U+sF9G01QSXsxb3VEf5nH6V002mfamANMS8BI3LIx9dm85wl1dPO2QMgEvae38ykwYOB82Qk04xTh8Msln4PXXW/2VLXnNlTnq3/0pmolJTEWTV4MOR8dl9pHRItsxZbdaeW4m0FEQhU5/7AUm37Eiar1UXyVPIE8jQmRGBEo3grYHJQah/JwdGEN26qxE/nALxYhv6gFV4vBFY1HM70INEr7EznRkNXdi8RpcgWDla3WgIGwEiMNbNUg5taHjFIi9RWAYJn1QjQc9lUgsM5Q9nOOoDKgn0AkU2AlBsUV/lE0yPvqzuQvjtgS4OVBJJn1fQrsJSIrCTLcRwjVUYTps0eq8dLMNXqWuDUhqvPBD32Iq2BtQKrKqfyosbBOEmt4eTSgQnDgOkDz7pT24bXBB4Bge++cxEPzIqScfSpIvu44/t1r6MSLL9fde6fCfBz32nE6tbfiH1dH3d0UNYJeoGp9lFKgLT11rnWl1Rcs5lCYrqmXNY6eYnflVr1B3Pl0RdbrQT5AAAAAElFTkSuQmCC;" parent="1" vertex="1">
          <mxGeometry x="-1741.6399999999999" y="-1040" width="67" height="22" as="geometry" />
        </mxCell>
        <mxCell id="ZkgHc4RPaXNIuICv1BDH-5" value="" style="shape=image;imageAspect=0;aspect=fixed;verticalLabelPosition=bottom;verticalAlign=top;fontSize=16;image=data:image/png,iVBORw0KGgoAAAANSUhEUgAAABYAAAAcCAYAAABlL09dAAAAAXNSR0IArs4c6QAAAUFJREFUSEvVlOExBEEQRt9FgAgQASJABGRABogAGRABGSgROBkQARmQAfWqptVYc2Z26laV/rNbdTvvvv76m54xUc0m4vLn4ENgHbju7aikeBV4AXzuAE898BJYtXcJ1m1V6eAVcAI8Ans9aj1TAtv6FnAJXCwT/JFg3f6G4mPgpqJstNcecPrbCXwKHADPgO/We08yhkqW4u9weCp/Syr3gXnFHr8/AvzWiH6rXLHRemjIrzMR6HBXFsUyBxut84b8bqQ/fwVMUDHvOdjWd0fmtwkc+c391UcVLtoXVXDu71qKmB1rj1H8MZxkRxUc/prfyHRsOTvoVhy3T4DTtn033H1lX1QV29ltipHwzQR00/1WTWAB2qAFwr3KtWoG10DD3/8HOK50vhVjr5xFgkbv2ZSYuNZDa75m0wNumsNk4E+q6UgdL1NECgAAAABJRU5ErkJggg==;" parent="1" vertex="1">
          <mxGeometry x="-1887.51" y="-1270.8" width="17.59" height="22.39" as="geometry" />
        </mxCell>
        <mxCell id="ZkgHc4RPaXNIuICv1BDH-6" value="" style="endArrow=classic;startArrow=classic;html=1;rounded=0;exitX=0;exitY=0;exitDx=0;exitDy=8.909952622966557;exitPerimeter=0;" parent="1" edge="1">
          <mxGeometry width="50" height="50" relative="1" as="geometry">
            <mxPoint x="-1944.14" y="-1272" as="sourcePoint" />
            <mxPoint x="-1812.02" y="-1209.22" as="targetPoint" />
          </mxGeometry>
        </mxCell>
        <mxCell id="ZkgHc4RPaXNIuICv1BDH-10" value="" style="shape=image;imageAspect=0;aspect=fixed;verticalLabelPosition=bottom;verticalAlign=top;fontSize=16;image=data:image/png,iVBORw0KGgoAAAANSUhEUgAAABYAAAAcCAYAAABlL09dAAAAAXNSR0IArs4c6QAAAYZJREFUSEu9lIExBEEQRd9lQASIABEgAkRABogAESACROBEgAyIgAzIgHpX02tcze7eTt2aqqvb29t5+/vP754w0pqMxOXfwQfAGnBTW1FJ8QrwDvi9DbzWwEtg1T4kWLVVpY3XwAnwAuzWqHVPCWzpm8AlcLFM8HeCVfsbio+B2x5lg712g6e/lcCnwD7wBnjt+qpJxrySpfg7f3gq/0wq94DnDnus5ihV6nPT+WbKFRutpwXyK1TrwiqTYzyFH4aYHOwD5wvk19T4rHGMpeodoKk0B8efXfldT+0ucAP4SOQQ1ezNwZHf3F99F5bPCzvTFVZ43QrO/V1NEYsN+un86FqtVsQbzW9kOqacFXRNuBB1D9hssxVWRPcJsJUt3wn32DMvfLlJioaymf6A/XGXsincg7GK8LPNBiMmrFFaAntPG1QhvHl7C1UhroBapZ9ZYw0eLlm8hORKvfbebNTWgAVcFQ5U6FnqwMHgvEFKDjUzfKjifMSWwM3gGgru6ZPfv0cD/wBZjk8dQ//s4wAAAABJRU5ErkJggg==;" parent="1" vertex="1">
          <mxGeometry x="-1753" y="-1207.4199999999998" width="14.77" height="18.8" as="geometry" />
        </mxCell>
        <mxCell id="ZkgHc4RPaXNIuICv1BDH-11" value="" style="endArrow=classic;startArrow=classic;html=1;rounded=0;" parent="1" edge="1">
          <mxGeometry width="50" height="50" relative="1" as="geometry">
            <mxPoint x="-1808" y="-1209" as="sourcePoint" />
            <mxPoint x="-1698" y="-1159" as="targetPoint" />
          </mxGeometry>
        </mxCell>
      </root>
    </mxGraphModel>
  </diagram>
</mxfile>
